<?xml version="1.0" encoding="UTF-8"?>
<svg version="1.1" xmlns="http://www.w3.org/2000/svg" width="100" height="100">
<path d="M0 0 C0.8499353 0.00404846 1.69987061 0.00809692 2.57556152 0.01226807 C3.46996948 0.00876343 4.36437744 0.00525879 5.28588867 0.00164795 C8.25231613 -0.00717881 11.2185065 -0.00131688 14.18493652 0.00543213 C16.23995001 0.00408575 18.29496319 0.00214545 20.34997559 -0.00036621 C24.66087877 -0.00331876 28.97169919 0.00098437 33.28259277 0.01031494 C38.81791777 0.02170952 44.35304883 0.01515075 49.8883667 0.00317001 C54.13303091 -0.00404506 58.37764888 -0.00176228 62.62231445 0.0034256 C64.66373721 0.00476307 66.70516412 0.00311098 68.74658203 -0.00153351 C71.59593889 -0.00659294 74.4449784 0.00110327 77.29431152 0.01226807 C78.14424683 0.0082196 78.99418213 0.00417114 79.86987305 0 C85.70640867 0.04252928 85.70640867 0.04252928 87.93493652 2.27105713 C88.12850632 5.21832848 88.19710067 8.07130817 88.17785645 11.01934814 C88.17975479 11.92511597 88.18165314 12.83088379 88.18360901 13.76409912 C88.18732362 16.76780767 88.17660361 19.7712762 88.16540527 22.77496338 C88.16421384 24.85479199 88.16376023 26.93462114 88.16401672 29.01445007 C88.16245072 33.37663127 88.15415154 37.73873053 88.14074707 42.10089111 C88.12374654 47.70577226 88.11993296 53.31056335 88.12069225 58.91546726 C88.12042097 63.2106971 88.11494661 67.50590705 88.10769081 71.80113029 C88.10449817 73.86849759 88.10253536 75.93586714 88.1017971 78.00323677 C88.09964042 80.88625083 88.09091114 83.76916737 88.0802002 86.65216064 C88.08065338 87.51504196 88.08110657 88.37792328 88.08157349 89.26695251 C88.04941067 95.15658298 88.04941067 95.15658298 86.93493652 96.27105713 C84.01836023 96.37163956 81.12542707 96.40720923 78.20837402 96.40045166 C77.29299866 96.40220398 76.37762329 96.4039563 75.43450928 96.40576172 C72.39296603 96.41018173 69.35148041 96.40724172 66.30993652 96.40386963 C64.20625802 96.40454263 62.1025796 96.40551261 59.99890137 96.4067688 C55.58369203 96.40824598 51.16850289 96.40609058 46.7532959 96.40142822 C41.08001092 96.39573093 35.40677324 96.39900983 29.73348999 96.40500069 C25.38765096 96.40860577 21.04182324 96.40746796 16.69598389 96.40487289 C14.60349522 96.40420348 12.51100555 96.40503255 10.41851807 96.40735245 C7.49948387 96.4098781 4.5805274 96.40603961 1.66149902 96.40045166 C0.35079437 96.40348801 0.35079437 96.40348801 -0.98638916 96.40658569 C-6.95080112 96.38531948 -6.95080112 96.38531948 -8.06506348 95.27105713 C-8.17095807 92.39036878 -8.21184044 89.53352685 -8.21032715 86.65216064 C-8.21368576 85.74814514 -8.21704437 84.84412964 -8.22050476 83.91271973 C-8.23004519 80.90845384 -8.23195941 77.90424349 -8.23303223 74.89996338 C-8.23624262 72.82110063 -8.23960652 70.74223812 -8.24311829 68.66337585 C-8.24911728 64.29944332 -8.25095739 59.93553061 -8.25036621 55.57159424 C-8.25026454 49.96787415 -8.26391886 44.36428062 -8.28113842 38.76059055 C-8.29223341 34.46532095 -8.29428619 30.17008219 -8.29375648 25.87479973 C-8.29494031 23.80825298 -8.29938441 21.74170553 -8.30708885 19.67517281 C-8.31683857 16.78980664 -8.31403068 13.90471837 -8.3079834 11.01934814 C-8.31360291 10.15849106 -8.31922241 9.29763397 -8.32501221 8.41069031 C-8.28653306 1.22012575 -7.2047096 0.05249879 0 0 Z " fill="#A4258C" transform="translate(11.0650634765625,1.72894287109375)"/>
<path d="M0 0 C6.27 0 12.54 0 19 0 C19 2.64 19 5.28 19 8 C16.03 8 13.06 8 10 8 C10 16.58 10 25.16 10 34 C12.31 32.35 14.62 30.7 17 29 C24.08249928 27.22937518 32.88624296 26.16448999 39.4375 30 C44.94132644 34.16633743 49.92724127 39.32219711 52 46 C53.0683415 56.1740894 51.87610764 65.02688044 45.75 73.375 C39.54447245 79.29845812 32.3904706 81.41894797 23.93359375 81.3515625 C19.3263414 80.7994284 15.55475517 78.96880651 12 76 C10.75390625 73.828125 10.75390625 73.828125 10 72 C9.34 72 8.68 72 8 72 C8 74.31 8 76.62 8 79 C2.39 79 -3.22 79 -9 79 C-9 76.69 -9 74.38 -9 72 C-6.03 72 -3.06 72 0 72 C0 48.24 0 24.48 0 0 Z " fill="#FAC40D" transform="translate(31,10)"/>
<path d="M0 0 C4.57296328 2.53357479 8.13724837 6.06503241 10 11 C11.05732306 19.16375401 10.70412353 25.58761314 5.80078125 32.328125 C1.11726392 36.6763797 -4.72883245 36.65496792 -10.82421875 36.5859375 C-15.3410598 35.75257199 -17.08782342 33.75335533 -19.73046875 30.140625 C-23 24.62769231 -23 24.62769231 -23 21 C-10.625 20.505 -10.625 20.505 2 20 C2.33 18.02 2.66 16.04 3 14 C-5.58 14 -14.16 14 -23 14 C-20.74108322 7.22324967 -20.74108322 7.22324967 -18 4.1875 C-17.484375 3.60355469 -16.96875 3.01960938 -16.4375 2.41796875 C-12.25288958 -1.70978555 -5.39944449 -0.78124984 0 0 Z " fill="#A5278A" transform="translate(63,46)"/>
<path d="M0 0 C0.8499353 0.00404846 1.69987061 0.00809692 2.57556152 0.01226807 C3.46996948 0.00876343 4.36437744 0.00525879 5.28588867 0.00164795 C8.25231613 -0.00717881 11.2185065 -0.00131688 14.18493652 0.00543213 C16.23995001 0.00408575 18.29496319 0.00214545 20.34997559 -0.00036621 C24.66087877 -0.00331876 28.97169919 0.00098437 33.28259277 0.01031494 C38.81791777 0.02170952 44.35304883 0.01515075 49.8883667 0.00317001 C54.13303091 -0.00404506 58.37764888 -0.00176228 62.62231445 0.0034256 C64.66373721 0.00476307 66.70516412 0.00311098 68.74658203 -0.00153351 C71.59593889 -0.00659294 74.4449784 0.00110327 77.29431152 0.01226807 C78.14424683 0.0082196 78.99418213 0.00417114 79.86987305 0 C85.70640867 0.04252928 85.70640867 0.04252928 87.93493652 2.27105713 C88.12850632 5.21832848 88.19710067 8.07130817 88.17785645 11.01934814 C88.17975479 11.92511597 88.18165314 12.83088379 88.18360901 13.76409912 C88.18732362 16.76780767 88.17660361 19.7712762 88.16540527 22.77496338 C88.16421384 24.85479199 88.16376023 26.93462114 88.16401672 29.01445007 C88.16245072 33.37663127 88.15415154 37.73873053 88.14074707 42.10089111 C88.12374654 47.70577226 88.11993296 53.31056335 88.12069225 58.91546726 C88.12042097 63.2106971 88.11494661 67.50590705 88.10769081 71.80113029 C88.10449817 73.86849759 88.10253536 75.93586714 88.1017971 78.00323677 C88.09964042 80.88625083 88.09091114 83.76916737 88.0802002 86.65216064 C88.08065338 87.51504196 88.08110657 88.37792328 88.08157349 89.26695251 C88.04941067 95.15658298 88.04941067 95.15658298 86.93493652 96.27105713 C84.01836023 96.37163956 81.12542707 96.40720923 78.20837402 96.40045166 C77.29299866 96.40220398 76.37762329 96.4039563 75.43450928 96.40576172 C72.39296603 96.41018173 69.35148041 96.40724172 66.30993652 96.40386963 C64.20625802 96.40454263 62.1025796 96.40551261 59.99890137 96.4067688 C55.58369203 96.40824598 51.16850289 96.40609058 46.7532959 96.40142822 C41.08001092 96.39573093 35.40677324 96.39900983 29.73348999 96.40500069 C25.38765096 96.40860577 21.04182324 96.40746796 16.69598389 96.40487289 C14.60349522 96.40420348 12.51100555 96.40503255 10.41851807 96.40735245 C7.49948387 96.4098781 4.5805274 96.40603961 1.66149902 96.40045166 C0.35079437 96.40348801 0.35079437 96.40348801 -0.98638916 96.40658569 C-6.95080112 96.38531948 -6.95080112 96.38531948 -8.06506348 95.27105713 C-8.17095807 92.39036878 -8.21184044 89.53352685 -8.21032715 86.65216064 C-8.21368576 85.74814514 -8.21704437 84.84412964 -8.22050476 83.91271973 C-8.23004519 80.90845384 -8.23195941 77.90424349 -8.23303223 74.89996338 C-8.23624262 72.82110063 -8.23960652 70.74223812 -8.24311829 68.66337585 C-8.24911728 64.29944332 -8.25095739 59.93553061 -8.25036621 55.57159424 C-8.25026454 49.96787415 -8.26391886 44.36428062 -8.28113842 38.76059055 C-8.29223341 34.46532095 -8.29428619 30.17008219 -8.29375648 25.87479973 C-8.29494031 23.80825298 -8.29938441 21.74170553 -8.30708885 19.67517281 C-8.31683857 16.78980664 -8.31403068 13.90471837 -8.3079834 11.01934814 C-8.31360291 10.15849106 -8.31922241 9.29763397 -8.32501221 8.41069031 C-8.28653306 1.22012575 -7.2047096 0.05249879 0 0 Z M-6.06506348 3.27105713 C-6.16027373 6.10149934 -6.19058672 8.90737383 -6.17858887 11.73809814 C-6.1787094 12.64022758 -6.17882994 13.54235701 -6.17895412 14.47182369 C-6.17820482 17.40622825 -6.17057578 20.34057011 -6.16271973 23.27496338 C-6.16125036 25.08091196 -6.16022962 26.88686097 -6.15966797 28.69281006 C-6.15441444 35.40639889 -6.14045336 42.11997862 -6.12756348 48.83355713 C-6.10693848 63.82793213 -6.08631348 78.82230713 -6.06506348 94.27105713 C24.29493652 94.27105713 54.65493652 94.27105713 85.93493652 94.27105713 C85.95556152 79.27668213 85.97618652 64.28230713 85.99743652 48.83355713 C86.00654053 44.09182129 86.01564453 39.35008545 86.02502441 34.46466064 C86.02836799 30.22948492 86.02836799 30.22948492 86.03038025 25.99430847 C86.03192 24.10185003 86.03544555 22.20939259 86.04051208 20.31694031 C86.04778798 17.4573088 86.04884399 14.59773746 86.04846191 11.73809814 C86.05385908 10.46471384 86.05385908 10.46471384 86.05936527 9.16560459 C86.41699124 5.41372663 86.41699124 5.41372663 84.93493652 2.27105713 C82.14041382 2.17053838 79.37057298 2.13489819 76.57556152 2.1416626 C75.69920044 2.13991028 74.82283936 2.13815796 73.91992188 2.13635254 C71.00824025 2.13193281 68.09661882 2.13487244 65.18493652 2.13824463 C63.17093901 2.13757162 61.15694157 2.13660163 59.14294434 2.13534546 C54.91604847 2.13386832 50.68917369 2.13602355 46.46228027 2.14068604 C41.0311312 2.14638333 35.60003154 2.14310441 30.16888428 2.13711357 C26.00833765 2.13350839 21.84780283 2.13464635 17.68725586 2.13724136 C15.68408197 2.13791075 13.68090703 2.1370818 11.67773438 2.13476181 C8.883231 2.13223598 6.08880882 2.13607489 3.29431152 2.1416626 C2.45791138 2.13963837 1.62151123 2.13761414 0.75976562 2.13552856 C-2.95563783 1.79224042 -2.95563783 1.79224042 -6.06506348 3.27105713 Z " fill="#FCD012" transform="translate(11.0650634765625,1.72894287109375)"/>
<path d="M0 0 C0.99 0.495 0.99 0.495 2 1 C2 31.69 2 62.38 2 94 C-1.29811278 95.64905639 -4.95952106 95.07728929 -8.58056641 95.02172852 C-9.46843338 95.01212097 -10.35630035 95.00251343 -11.27107239 94.99261475 C-14.21464799 94.95955406 -17.15807842 94.91924869 -20.1015625 94.87890625 C-22.13894128 94.85461204 -24.17632547 94.83076814 -26.2137146 94.80735779 C-31.58302975 94.74444728 -36.95224933 94.6754004 -42.32147217 94.60510254 C-47.79760374 94.53448194 -53.27380321 94.46962746 -58.75 94.40429688 C-69.50007461 94.27519476 -80.25005713 94.13961398 -91 94 C-91 93.67 -91 93.34 -91 93 C-60.97 93 -30.94 93 0 93 C-0.08378906 86.37035156 -0.16757813 79.74070312 -0.25390625 72.91015625 C-0.30459174 68.72201025 -0.35498115 64.53386493 -0.40429688 60.34570312 C-0.48268319 53.69112222 -0.56219383 47.03656752 -0.64819336 40.38208008 C-0.71742242 35.01997355 -0.78178143 29.65782909 -0.84269524 24.29562187 C-0.86685948 22.24497779 -0.89280928 20.19435399 -0.92053413 18.14375496 C-0.95892566 15.28214823 -0.99109378 12.42053664 -1.02172852 9.55883789 C-1.03467453 8.70216522 -1.04762054 7.84549255 -1.06095886 6.96286011 C-1.07900194 4.9752181 -1.04526206 2.9872085 -1 1 C-0.67 0.67 -0.34 0.34 0 0 Z " fill="#F0B61A" transform="translate(97,3)"/>
<path d="M0 0 C0.33 0 0.66 0 1 0 C1.01030746 1.13783432 1.02061493 2.27566864 1.03123474 3.44798279 C1.12879137 14.14636411 1.23150814 24.84468495 1.33933926 35.5429678 C1.39461499 41.04367968 1.44804229 46.54439682 1.49731445 52.04516602 C1.54488958 57.34901283 1.59722963 62.65279276 1.65294075 67.95656013 C1.67339546 69.98483691 1.69210326 72.01313205 1.70907402 74.04144096 C1.73304932 76.87201484 1.76311287 79.70246105 1.79467773 82.53295898 C1.8004332 83.38028091 1.80618866 84.22760284 1.81211853 85.1006012 C1.50057097 88.85669744 1.50057097 88.85669744 3 92 C5.82960718 92.12523079 8.63599337 92.18609228 11.46704102 92.20532227 C12.35476196 92.21522186 13.24248291 92.22512146 14.15710449 92.23532104 C17.10601082 92.26703484 20.05493329 92.29173234 23.00390625 92.31640625 C25.0427239 92.33696726 27.08153721 92.35796349 29.12034607 92.37937927 C34.49779755 92.4346881 39.87528806 92.48405838 45.25280762 92.53222656 C50.73563121 92.58237742 56.21839784 92.63809689 61.70117188 92.69335938 C72.4673993 92.80104865 83.2336761 92.90246954 94 93 C94 93.33 94 93.66 94 94 C81.89158056 94.02312178 69.78316633 94.04091424 57.67472935 94.05181217 C52.05292038 94.05704136 46.43112647 94.06413966 40.80932617 94.07543945 C35.38881723 94.08626706 29.9683228 94.09227656 24.54780388 94.09487724 C22.47485055 94.09673172 20.40189806 94.10035277 18.32895088 94.10573006 C15.43616107 94.1129388 12.54343204 94.11399101 9.65063477 94.11352539 C8.78461136 94.11712067 7.91858795 94.12071594 7.02632141 94.12442017 C1.11405216 94.11405216 1.11405216 94.11405216 0 93 C-0.09523905 90.10856849 -0.12553027 87.24107936 -0.11352539 84.34936523 C-0.11367142 83.44213715 -0.11381744 82.53490906 -0.1139679 81.60018921 C-0.11326841 78.58630015 -0.10547434 75.57247207 -0.09765625 72.55859375 C-0.0957922 70.47494033 -0.09436824 68.39128646 -0.09336853 66.30763245 C-0.08954234 60.81176554 -0.0797112 55.31592487 -0.06866455 49.82006836 C-0.0584526 44.21663773 -0.05387137 38.61320287 -0.04882812 33.00976562 C-0.03808902 22.00649886 -0.02101139 11.00325161 0 0 Z " fill="#FED300" transform="translate(3,4)"/>
</svg>
